<svg width="188" height="43" viewBox="0 0 174 41" fill="none" xmlns="http://www.w3.org/2000/svg">
<path d="M48.26 32.45C46.66 32.45 45.215 32.17 43.925 31.61C42.645 31.04 41.59 30.23 40.76 29.18C39.94 28.12 39.42 26.86 39.2 25.4L43.46 24.77C43.76 26.01 44.38 26.965 45.32 27.635C46.26 28.305 47.33 28.64 48.53 28.64C49.2 28.64 49.85 28.535 50.48 28.325C51.11 28.115 51.625 27.805 52.025 27.395C52.435 26.985 52.64 26.48 52.64 25.88C52.64 25.66 52.605 25.45 52.535 25.25C52.475 25.04 52.37 24.845 52.22 24.665C52.07 24.485 51.855 24.315 51.575 24.155C51.305 23.995 50.96 23.85 50.54 23.72L44.93 22.07C44.51 21.95 44.02 21.78 43.46 21.56C42.91 21.34 42.375 21.025 41.855 20.615C41.335 20.205 40.9 19.665 40.55 18.995C40.21 18.315 40.04 17.46 40.04 16.43C40.04 14.98 40.405 13.775 41.135 12.815C41.865 11.855 42.84 11.14 44.06 10.67C45.28 10.2 46.63 9.97 48.11 9.98C49.6 10 50.93 10.255 52.1 10.745C53.27 11.235 54.25 11.95 55.04 12.89C55.83 13.82 56.4 14.96 56.75 16.31L52.34 17.06C52.18 16.36 51.885 15.77 51.455 15.29C51.025 14.81 50.51 14.445 49.91 14.195C49.32 13.945 48.7 13.81 48.05 13.79C47.41 13.77 46.805 13.86 46.235 14.06C45.675 14.25 45.215 14.53 44.855 14.9C44.505 15.27 44.33 15.71 44.33 16.22C44.33 16.69 44.475 17.075 44.765 17.375C45.055 17.665 45.42 17.9 45.86 18.08C46.3 18.26 46.75 18.41 47.21 18.53L50.96 19.55C51.52 19.7 52.14 19.9 52.82 20.15C53.5 20.39 54.15 20.73 54.77 21.17C55.4 21.6 55.915 22.17 56.315 22.88C56.725 23.59 56.93 24.49 56.93 25.58C56.93 26.74 56.685 27.755 56.195 28.625C55.715 29.485 55.065 30.2 54.245 30.77C53.425 31.33 52.495 31.75 51.455 32.03C50.425 32.31 49.36 32.45 48.26 32.45ZM64.5988 32V23.21L57.2188 10.4H61.9888L66.6688 18.53L71.3488 10.4H76.1188L68.7388 23.21V32H64.5988ZM85.467 32.45C83.867 32.45 82.422 32.17 81.132 31.61C79.852 31.04 78.797 30.23 77.967 29.18C77.147 28.12 76.627 26.86 76.407 25.4L80.667 24.77C80.967 26.01 81.587 26.965 82.527 27.635C83.467 28.305 84.537 28.64 85.737 28.64C86.407 28.64 87.057 28.535 87.687 28.325C88.317 28.115 88.832 27.805 89.232 27.395C89.642 26.985 89.847 26.48 89.847 25.88C89.847 25.66 89.812 25.45 89.742 25.25C89.682 25.04 89.577 24.845 89.427 24.665C89.277 24.485 89.062 24.315 88.782 24.155C88.512 23.995 88.167 23.85 87.747 23.72L82.137 22.07C81.717 21.95 81.227 21.78 80.667 21.56C80.117 21.34 79.582 21.025 79.062 20.615C78.542 20.205 78.107 19.665 77.757 18.995C77.417 18.315 77.247 17.46 77.247 16.43C77.247 14.98 77.612 13.775 78.342 12.815C79.072 11.855 80.047 11.14 81.267 10.67C82.487 10.2 83.837 9.97 85.317 9.98C86.807 10 88.137 10.255 89.307 10.745C90.477 11.235 91.457 11.95 92.247 12.89C93.037 13.82 93.607 14.96 93.957 16.31L89.547 17.06C89.387 16.36 89.092 15.77 88.662 15.29C88.232 14.81 87.717 14.445 87.117 14.195C86.527 13.945 85.907 13.81 85.257 13.79C84.617 13.77 84.012 13.86 83.442 14.06C82.882 14.25 82.422 14.53 82.062 14.9C81.712 15.27 81.537 15.71 81.537 16.22C81.537 16.69 81.682 17.075 81.972 17.375C82.262 17.665 82.627 17.9 83.067 18.08C83.507 18.26 83.957 18.41 84.417 18.53L88.167 19.55C88.727 19.7 89.347 19.9 90.027 20.15C90.707 20.39 91.357 20.73 91.977 21.17C92.607 21.6 93.122 22.17 93.522 22.88C93.932 23.59 94.137 24.49 94.137 25.58C94.137 26.74 93.892 27.755 93.402 28.625C92.922 29.485 92.272 30.2 91.452 30.77C90.632 31.33 89.702 31.75 88.662 32.03C87.632 32.31 86.567 32.45 85.467 32.45ZM97.434 32V10.4H104.424C104.594 10.4 104.944 10.405 105.474 10.415C106.004 10.425 106.514 10.46 107.004 10.52C108.744 10.73 110.219 11.335 111.429 12.335C112.639 13.335 113.559 14.605 114.189 16.145C114.819 17.685 115.134 19.37 115.134 21.2C115.134 23.03 114.819 24.715 114.189 26.255C113.559 27.795 112.639 29.065 111.429 30.065C110.219 31.065 108.744 31.67 107.004 31.88C106.514 31.94 106.004 31.975 105.474 31.985C104.944 31.995 104.594 32 104.424 32H97.434ZM101.574 28.16H104.424C104.694 28.16 105.059 28.155 105.519 28.145C105.979 28.125 106.394 28.08 106.764 28.01C107.704 27.82 108.469 27.38 109.059 26.69C109.659 26 110.099 25.17 110.379 24.2C110.669 23.23 110.814 22.23 110.814 21.2C110.814 20.12 110.664 19.095 110.364 18.125C110.074 17.155 109.629 16.335 109.029 15.665C108.429 14.995 107.674 14.57 106.764 14.39C106.394 14.31 105.979 14.265 105.519 14.255C105.059 14.245 104.694 14.24 104.424 14.24H101.574V28.16ZM118.733 32V10.4H132.833V14.21H122.813V18.83H131.033V22.64H122.813V28.19H132.833V32H118.733ZM141.078 32L134.478 10.4H138.678L144.078 28.16L149.568 10.4H153.768L147.168 32H141.078ZM163.602 32.45C162.002 32.45 160.557 32.17 159.267 31.61C157.987 31.04 156.932 30.23 156.102 29.18C155.282 28.12 154.762 26.86 154.542 25.4L158.802 24.77C159.102 26.01 159.722 26.965 160.662 27.635C161.602 28.305 162.672 28.64 163.872 28.64C164.542 28.64 165.192 28.535 165.822 28.325C166.452 28.115 166.967 27.805 167.367 27.395C167.777 26.985 167.982 26.48 167.982 25.88C167.982 25.66 167.947 25.45 167.877 25.25C167.817 25.04 167.712 24.845 167.562 24.665C167.412 24.485 167.197 24.315 166.917 24.155C166.647 23.995 166.302 23.85 165.882 23.72L160.272 22.07C159.852 21.95 159.362 21.78 158.802 21.56C158.252 21.34 157.717 21.025 157.197 20.615C156.677 20.205 156.242 19.665 155.892 18.995C155.552 18.315 155.382 17.46 155.382 16.43C155.382 14.98 155.747 13.775 156.477 12.815C157.207 11.855 158.182 11.14 159.402 10.67C160.622 10.2 161.972 9.97 163.452 9.98C164.942 10 166.272 10.255 167.442 10.745C168.612 11.235 169.592 11.95 170.382 12.89C171.172 13.82 171.742 14.96 172.092 16.31L167.682 17.06C167.522 16.36 167.227 15.77 166.797 15.29C166.367 14.81 165.852 14.445 165.252 14.195C164.662 13.945 164.042 13.81 163.392 13.79C162.752 13.77 162.147 13.86 161.577 14.06C161.017 14.25 160.557 14.53 160.197 14.9C159.847 15.27 159.672 15.71 159.672 16.22C159.672 16.69 159.817 17.075 160.107 17.375C160.397 17.665 160.762 17.9 161.202 18.08C161.642 18.26 162.092 18.41 162.552 18.53L166.302 19.55C166.862 19.7 167.482 19.9 168.162 20.15C168.842 20.39 169.492 20.73 170.112 21.17C170.742 21.6 171.257 22.17 171.657 22.88C172.067 23.59 172.272 24.49 172.272 25.58C172.272 26.74 172.027 27.755 171.537 28.625C171.057 29.485 170.407 30.2 169.587 30.77C168.767 31.33 167.837 31.75 166.797 32.03C165.767 32.31 164.702 32.45 163.602 32.45Z" fill="white"/>
<path d="M16.3497 26.996C16.3194 26.9932 16.2893 26.9906 16.2592 26.9885C14.8601 26.8898 13.5428 26.2883 12.5443 25.2935L10.6649 23.4208C9.65912 22.4186 9.06149 21.0828 8.93325 19.6616C8.93201 19.6475 8.93065 19.6334 8.92919 19.6194C8.74944 17.8416 7.30804 16.4229 5.54441 16.2855C3.26886 16.1081 1.38544 18.013 1.56454 20.3126C1.70409 22.1036 3.12526 23.5619 4.89581 23.7293C4.92595 23.7321 4.95603 23.7346 4.98601 23.7367C6.38516 23.8355 7.7026 24.4369 8.70112 25.4319L10.5804 27.3045C11.5863 28.3067 12.184 29.6424 12.3122 31.0637C12.3135 31.0778 12.3149 31.0919 12.3163 31.106C12.4962 32.8839 13.9377 34.3025 15.7015 34.4398C17.9769 34.6169 19.8602 32.7119 19.6809 30.4124C19.5413 28.6215 18.1202 27.1633 16.3497 26.996" fill="white"/>
<path d="M27.0484 16.2869C27.034 16.2857 27.0196 16.2846 27.0052 16.2835C25.5545 16.18 24.183 15.5792 23.1546 14.5403L21.3987 12.7663C20.394 11.7513 19.8009 10.4044 19.679 8.97427C19.6778 8.96012 19.6765 8.94601 19.6752 8.9318C19.5039 7.15004 18.0646 5.72327 16.2982 5.58109C14.0172 5.39748 12.1274 7.30649 12.309 9.61089C12.4495 11.3954 13.8619 12.8497 15.6256 13.0227C15.6396 13.0241 15.6536 13.0254 15.6677 13.0266C17.0834 13.1498 18.4168 13.749 19.4215 14.7641L21.3276 16.6897C22.3173 17.6896 22.914 19.0084 23.0619 20.4145C23.0634 20.4282 23.0649 20.4421 23.0665 20.456C23.2703 22.2132 24.7058 23.6023 26.4522 23.7351C28.7217 23.9078 30.5991 22.0095 30.4258 19.7164C30.2888 17.9052 28.8404 16.4354 27.0484 16.2869" fill="white"/>
<ellipse rx="3.77413" ry="3.77205" transform="matrix(-0.684017 0.729466 -0.722463 -0.691409 26.6933 30.6388)" fill="white"/>
<ellipse rx="3.77413" ry="3.77205" transform="matrix(-0.684017 0.729466 -0.722463 -0.691409 15.9804 20.0615)" fill="white"/>
<ellipse rx="3.77413" ry="3.77205" transform="matrix(-0.683973 0.729508 -0.722506 -0.691365 5.30655 9.36109)" fill="white"/>
<ellipse rx="3.77413" ry="3.77205" transform="matrix(-0.684017 0.729466 -0.722463 -0.691409 26.6933 9.36113)" fill="white"/>
<ellipse rx="3.77413" ry="3.77205" transform="matrix(-0.684017 0.729466 -0.722463 -0.691409 5.30654 30.6388)" fill="white"/>
</svg>
